# xmcd
#
# Track frame offsets:
# 150
# 14545
# 30487
# 41445
# 57190
# 68400
# 77257
# 88320
# 103447
# 115222
# 124897
# 136175
#
# Disc length: 1960 seconds
#
#
# Revision: 0
# Processed by: cddbd v1.5.1PL2 Copyright (c) Steve Scherf et al.
# Submitted via: FreeRIP 2.942 
#
DISCID=9807a60c
DTITLE=Louvin Brothers - Keep Your Eyes on Jesus
DYEAR=1900
DGENRE=Gospel
TTITLE0=Keep Your Eyes On Jesus
TTITLE1=Almost Persuaded
TTITLE2=He Set Me Free
TTITLE3=O Who Shall Be Able to Stand
TTITLE4=You'll Meet Him in the Clouds
TTITLE5=You Can't Find the Lord Too Soon
TTITLE6=I Have Found the Way
TTITLE7=O Why Not Tonight?
TTITLE8=Kneel at the Cross
TTITLE9=If Today Was the Day
TTITLE10=I Feel Better Now
TTITLE11=Leaning On the Everlasting Arms
EXTD=
EXTT0=
EXTT1=
EXTT2=
EXTT3=
EXTT4=
EXTT5=
EXTT6=
EXTT7=
EXTT8=
EXTT9=
EXTT10=
EXTT11=
PLAYORDER=
